<?xml version="1.0" encoding="UTF-8" standalone="no"?>
<!-- Created with Inkscape (http://www.inkscape.org/) -->

<svg
   width="480"
   height="480"
   viewBox="0 0 480 480"
   version="1.1"
   id="svg5"
   inkscape:version="1.2 (dc2aedaf03, 2022-05-15)"
   sodipodi:docname="mfr-v5.svg"
   inkscape:export-filename="icon.png"
   inkscape:export-xdpi="102.4"
   inkscape:export-ydpi="102.4"
   xml:space="preserve"
   xmlns:inkscape="http://www.inkscape.org/namespaces/inkscape"
   xmlns:sodipodi="http://sodipodi.sourceforge.net/DTD/sodipodi-0.dtd"
   xmlns="http://www.w3.org/2000/svg"
   xmlns:svg="http://www.w3.org/2000/svg"><sodipodi:namedview
     id="namedview7"
     pagecolor="#ffffff"
     bordercolor="#666666"
     borderopacity="1.0"
     inkscape:showpageshadow="true"
     inkscape:pageopacity="0.0"
     inkscape:pagecheckerboard="true"
     inkscape:deskcolor="#d1d1d1"
     inkscape:document-units="px"
     showgrid="true"
     inkscape:zoom="0.0625"
     inkscape:cx="-5656"
     inkscape:cy="5128"
     inkscape:window-width="2560"
     inkscape:window-height="1377"
     inkscape:window-x="1072"
     inkscape:window-y="461"
     inkscape:window-maximized="1"
     inkscape:current-layer="layer1"><inkscape:grid
       type="xygrid"
       id="grid188"
       dotted="false"
       originx="0"
       originy="0"
       visible="true" /></sodipodi:namedview><defs
     id="defs2"><linearGradient
       id="linearGradient36284"
       inkscape:swatch="solid"><stop
         style="stop-color:#586889;stop-opacity:1;"
         offset="0"
         id="stop36282" /></linearGradient><rect
       x="250.77058"
       y="1223.9993"
       width="1403.1211"
       height="922.47754"
       id="rect857" /><rect
       x="316.44861"
       y="1343.4139"
       width="1346.3992"
       height="779.18005"
       id="rect851" /><filter
       style="color-interpolation-filters:sRGB;"
       inkscape:label="Drop Shadow"
       id="filter29237"
       x="-0.038876314"
       y="-0.040371557"
       width="1.1047501"
       height="1.0807431"><feColorMatrix
         values="1.5 0 0 0.3125 -0.25 0 1.5 0 0.3125 -0.25 0 0 1.5 0.3125 -0.25 0 0 0 1 0"
         id="feColorMatrix29235"
         result="fbSourceGraphic" /><feColorMatrix
         result="fbSourceGraphicAlpha"
         in="fbSourceGraphic"
         values="0 0 0 -1 0 0 0 0 -1 0 0 0 0 -1 0 0 0 0 1 0"
         id="feColorMatrix29287" /><feColorMatrix
         id="feColorMatrix29289"
         type="hueRotate"
         values="100"
         result="color1"
         in="fbSourceGraphic" /><feColorMatrix
         id="feColorMatrix29291"
         type="saturate"
         values="0.5"
         result="fbSourceGraphic" /><feColorMatrix
         result="fbSourceGraphicAlpha"
         in="fbSourceGraphic"
         values="0 0 0 -1 0 0 0 0 -1 0 0 0 0 -1 0 0 0 0 1 0"
         id="feColorMatrix567" /><feColorMatrix
         id="feColorMatrix569"
         values="0.747604 0 0 0.21845 0.126198 0 0.747604 0 0.21845 0.126198 0 0 0.747604 0.21845 0.126198 0 0 0 1 0"
         in="fbSourceGraphic"
         result="fbSourceGraphic" /><feColorMatrix
         result="fbSourceGraphicAlpha"
         in="fbSourceGraphic"
         values="0 0 0 -1 0 0 0 0 -1 0 0 0 0 -1 0 0 0 0 1 0"
         id="feColorMatrix587" /><feColorMatrix
         id="feColorMatrix589"
         values="1 0 0 -0.201278 -0 0 1 0 -0.201278 -0 0 0 1 -0.201278 -0 0 0 0 1 0"
         in="fbSourceGraphic"
         result="fbSourceGraphic" /><feColorMatrix
         result="fbSourceGraphicAlpha"
         in="fbSourceGraphic"
         values="0 0 0 -1 0 0 0 0 -1 0 0 0 0 -1 0 0 0 0 1 0"
         id="feColorMatrix898" /><feFlood
         id="feFlood900"
         flood-opacity="0.498039"
         flood-color="rgb(0,0,0)"
         result="flood"
         in="fbSourceGraphic" /><feComposite
         in2="fbSourceGraphic"
         id="feComposite902"
         in="flood"
         operator="in"
         result="composite1" /><feGaussianBlur
         id="feGaussianBlur904"
         in="composite1"
         stdDeviation="3"
         result="blur" /><feOffset
         id="feOffset906"
         dx="5"
         dy="0"
         result="offset" /><feComposite
         in2="offset"
         id="feComposite908"
         in="fbSourceGraphic"
         operator="over"
         result="fbSourceGraphic" /><feColorMatrix
         result="fbSourceGraphicAlpha"
         in="fbSourceGraphic"
         values="0 0 0 -1 0 0 0 0 -1 0 0 0 0 -1 0 0 0 0 1 0"
         id="feColorMatrix910" /><feFlood
         id="feFlood912"
         flood-opacity="0.498039"
         flood-color="rgb(0,0,0)"
         result="flood"
         in="fbSourceGraphic" /><feComposite
         in2="fbSourceGraphic"
         id="feComposite914"
         in="flood"
         operator="in"
         result="composite1" /><feGaussianBlur
         id="feGaussianBlur916"
         in="composite1"
         stdDeviation="3"
         result="blur" /><feOffset
         id="feOffset918"
         dx="5"
         dy="0"
         result="offset" /><feComposite
         in2="offset"
         id="feComposite920"
         in="fbSourceGraphic"
         operator="over"
         result="composite2" /></filter><filter
       style="color-interpolation-filters:sRGB;"
       inkscape:label="Drop Shadow"
       id="filter932"
       x="-0.022568234"
       y="-0.026345498"
       width="1.0566907"
       height="1.052691"><feFlood
         flood-opacity="0.498039"
         flood-color="rgb(0,0,0)"
         result="flood"
         id="feFlood922" /><feComposite
         in="flood"
         in2="SourceGraphic"
         operator="in"
         result="composite1"
         id="feComposite924" /><feGaussianBlur
         in="composite1"
         stdDeviation="3"
         result="blur"
         id="feGaussianBlur926" /><feOffset
         dx="5"
         dy="0"
         result="offset"
         id="feOffset928" /><feComposite
         in="SourceGraphic"
         in2="offset"
         operator="over"
         result="composite2"
         id="feComposite930" /></filter><filter
       style="color-interpolation-filters:sRGB;"
       inkscape:label="Drop Shadow"
       id="filter956"
       x="-0.031936319"
       y="-0.025031522"
       width="1.0802067"
       height="1.050063"><feFlood
         flood-opacity="0.498039"
         flood-color="rgb(0,0,0)"
         result="flood"
         id="feFlood946" /><feComposite
         in="flood"
         in2="SourceGraphic"
         operator="in"
         result="composite1"
         id="feComposite948" /><feGaussianBlur
         in="composite1"
         stdDeviation="3"
         result="blur"
         id="feGaussianBlur950" /><feOffset
         dx="5"
         dy="0"
         result="offset"
         id="feOffset952" /><feComposite
         in="SourceGraphic"
         in2="offset"
         operator="over"
         result="composite2"
         id="feComposite954" /></filter><filter
       style="color-interpolation-filters:sRGB;"
       inkscape:label="Drop Shadow"
       id="filter968"
       x="-0.031767242"
       y="-0.0249108"
       width="1.0798607"
       height="1.0498216"><feFlood
         flood-opacity="0.498039"
         flood-color="rgb(0,0,0)"
         result="flood"
         id="feFlood958" /><feComposite
         in="flood"
         in2="SourceGraphic"
         operator="in"
         result="composite1"
         id="feComposite960" /><feGaussianBlur
         in="composite1"
         stdDeviation="3"
         result="blur"
         id="feGaussianBlur962" /><feOffset
         dx="5"
         dy="0"
         result="offset"
         id="feOffset964" /><feComposite
         in="SourceGraphic"
         in2="offset"
         operator="over"
         result="composite2"
         id="feComposite966" /></filter><filter
       style="color-interpolation-filters:sRGB;"
       inkscape:label="Drop Shadow"
       id="filter980"
       x="-0.031752435"
       y="-0.024912471"
       width="1.0798224"
       height="1.0498249"><feFlood
         flood-opacity="0.498039"
         flood-color="rgb(0,0,0)"
         result="flood"
         id="feFlood970" /><feComposite
         in="flood"
         in2="SourceGraphic"
         operator="in"
         result="composite1"
         id="feComposite972" /><feGaussianBlur
         in="composite1"
         stdDeviation="3"
         result="blur"
         id="feGaussianBlur974" /><feOffset
         dx="5"
         dy="0"
         result="offset"
         id="feOffset976" /><feComposite
         in="SourceGraphic"
         in2="offset"
         operator="over"
         result="composite2"
         id="feComposite978" /></filter><filter
       style="color-interpolation-filters:sRGB;"
       inkscape:label="Drop Shadow"
       id="filter1114"
       x="-0.06132797"
       y="-0.18192846"
       width="1.1392833"
       height="1.3638569"><feFlood
         flood-opacity="0.498039"
         flood-color="rgb(0,0,0)"
         result="flood"
         id="feFlood1104" /><feComposite
         in="flood"
         in2="SourceGraphic"
         operator="in"
         result="composite1"
         id="feComposite1106" /><feGaussianBlur
         in="composite1"
         stdDeviation="3"
         result="blur"
         id="feGaussianBlur1108" /><feOffset
         dx="2.5"
         dy="0"
         result="offset"
         id="feOffset1110" /><feComposite
         in="SourceGraphic"
         in2="offset"
         operator="over"
         result="composite2"
         id="feComposite1112" /></filter><inkscape:path-effect
       effect="fill_between_many"
       method="originald"
       linkedpaths="#rect7514,0,1|#rect2406,0,1|"
       id="path-effect7574" /><filter
       style="color-interpolation-filters:sRGB"
       inkscape:label="Color Shift"
       id="filter29237-4"
       x="0"
       y="0"
       width="1"
       height="1"><feColorMatrix
         values="1.5 0 0 0.3125 -0.25 0 1.5 0 0.3125 -0.25 0 0 1.5 0.3125 -0.25 0 0 0 1 0"
         id="feColorMatrix29235-8"
         result="fbSourceGraphic" /><feColorMatrix
         result="fbSourceGraphicAlpha"
         in="fbSourceGraphic"
         values="0 0 0 -1 0 0 0 0 -1 0 0 0 0 -1 0 0 0 0 1 0"
         id="feColorMatrix29287-4" /><feColorMatrix
         id="feColorMatrix29289-7"
         type="hueRotate"
         values="100"
         result="color1"
         in="fbSourceGraphic" /><feColorMatrix
         id="feColorMatrix29291-4"
         type="saturate"
         values="0.5"
         result="color2" /></filter><filter
       style="color-interpolation-filters:sRGB;"
       inkscape:label="Color Shift"
       id="filter41486"
       x="-0.01106624"
       y="-0.032827827"
       width="1.0221325"
       height="1.0656557"><feColorMatrix
         type="hueRotate"
         values="241"
         result="color1"
         id="feColorMatrix41482" /><feColorMatrix
         type="saturate"
         values="0.5"
         result="color2"
         id="feColorMatrix41484" /></filter></defs><g
     inkscape:label="Layer 1"
     inkscape:groupmode="layer"
     id="layer1"><text
       xml:space="preserve"
       transform="matrix(0.20033905,0,0,0.20063659,-7.5390591,-3.0877979)"
       id="text849"
       style="font-style:normal;font-weight:normal;font-size:40px;line-height:1.25;font-family:sans-serif;letter-spacing:0px;word-spacing:0px;white-space:pre;shape-inside:url(#rect851);display:inline;fill:#000000;fill-opacity:1;stroke:none;stroke-width:1.31971" /><text
       xml:space="preserve"
       transform="matrix(0.20033905,0,0,0.20063659,-7.5390591,-3.0877979)"
       id="text855"
       style="font-style:normal;font-variant:normal;font-weight:bold;font-stretch:normal;font-size:192px;line-height:1;font-family:sans-serif;-inkscape-font-specification:'sans-serif Bold';letter-spacing:0px;word-spacing:0px;white-space:pre;shape-inside:url(#rect857);display:inline;fill:#000000;fill-opacity:1;stroke:none;stroke-width:1.31971" /><path
       inkscape:original-d="M 0,0"
       inkscape:path-effect="#path-effect7574"
       d="M 0,0"
       id="path7576"
       class="UnoptimicedTransforms" /><path
       id="rect2406"
       style="fill:#adb5d5;fill-opacity:1;stroke:#586889;stroke-width:16;stroke-linecap:round;stroke-linejoin:round;stroke-miterlimit:0;stroke-dasharray:none;stroke-opacity:0.988235;paint-order:markers stroke fill"
       class="UnoptimicedTransforms"
       d="M 86.774506,15.14003 H 393.22549 c 17.35647,0 31.32937,14.31673 31.32937,32.100292 V 432.75968 c 0,17.78356 -13.9729,32.10029 -31.32937,32.10029 H 86.774506 c -17.356466,0 -31.329361,-14.31673 -31.329361,-32.10029 V 47.240322 c 0,-17.783562 13.972895,-32.100292 31.329361,-32.100292 z" /><path
       d="m 86.77539,15.14003 c -17.35645,0 -31.33008,14.31607 -31.33008,32.09961 V 73.25136 H 424.55469 V 47.23964 c 0,-17.78354 -13.97363,-32.09961 -31.33008,-32.09961 z"
       style="fill:#415372;fill-opacity:1;stroke:#e35500;stroke-width:16;stroke-linecap:square;stroke-linejoin:miter;stroke-miterlimit:1.5;stroke-opacity:0.99607843;paint-order:stroke markers fill"
       id="path7596" /><path
       id="rect7514"
       style="fill:#415372;fill-opacity:1;stroke:#2a3d5a;stroke-width:8;stroke-linejoin:miter;stroke-miterlimit:1.8;stroke-opacity:0.996078;paint-order:normal"
       class="UnoptimicedTransforms"
       d="m 134.28754,403.05087 h 211.42492 l 20,65.7609 H 114.28754 Z"
       sodipodi:nodetypes="ccccc" /><path
       id="path17570"
       style="fill:#1d293c;fill-opacity:0.73506492;stroke:#000610;stroke-width:0;stroke-linejoin:miter;stroke-miterlimit:1.8;stroke-dasharray:none;stroke-opacity:1;paint-order:normal"
       class="UnoptimicedTransforms"
       d="m 114.28754,410.17789 h 251.42492 v 51.50686 H 114.28754 Z"
       sodipodi:nodetypes="ccccc"
       transform="matrix(0.1498456,0,0,1.1224887,130.03706,-53.365654)" /><path
       id="path17572"
       style="fill:#1d293c;fill-opacity:0.73506492;stroke:#000000;stroke-width:0;stroke-linejoin:miter;stroke-miterlimit:1.8;stroke-dasharray:none;stroke-opacity:0.77604175;paint-order:normal"
       class="UnoptimicedTransforms"
       d="m 114.28754,410.17789 h 251.42492 v 51.50686 H 114.28754 Z"
       sodipodi:nodetypes="ccccc"
       transform="matrix(0.1498456,0,0,1.1224887,278.03706,-53.365654)" /><path
       id="path17574"
       style="fill:#1d293c;fill-opacity:0.73506492;stroke:#000610;stroke-width:0;stroke-linejoin:miter;stroke-miterlimit:1.8;stroke-dasharray:none;stroke-opacity:1;paint-order:normal"
       class="UnoptimicedTransforms"
       d="m 114.28754,410.17789 h 251.42492 v 51.50686 H 114.28754 Z"
       sodipodi:nodetypes="ccccc"
       transform="matrix(0.1498456,0,0,1.1224887,204.03706,-53.365654)" /><path
       d="m 86.77539,15.14003 c -17.35645,0 -31.33008,14.31607 -31.33008,32.09961 V 81.25136 H 424.55469 V 47.23964 c 0,-17.78354 -13.97363,-32.09961 -31.33008,-32.09961 z"
       style="fill:#f18306;fill-opacity:1;stroke:#2b3e5b;stroke-width:0;stroke-linecap:square;stroke-linejoin:miter;stroke-miterlimit:1.5;stroke-dasharray:none;stroke-opacity:0.996078;paint-order:stroke markers fill"
       id="path23525"
       sodipodi:nodetypes="ssccsss" /><ellipse
       style="fill:#ffffff;fill-opacity:0.85454541;stroke:#2b3e5b;stroke-width:0;stroke-linecap:round;stroke-linejoin:miter;stroke-miterlimit:2;stroke-dasharray:none;stroke-opacity:0.996078;paint-order:stroke markers fill"
       id="path23608"
       cy="297.54523"
       cx="263.33572"
       rx="10.039028"
       ry="14.99952"
       transform="matrix(0.7313147,-0.68204018,0.62148118,0.78342909,0,0)" /><ellipse
       style="fill:#ffffff;fill-opacity:0.85454541;stroke:#2b3e5b;stroke-width:0;stroke-linecap:round;stroke-linejoin:miter;stroke-miterlimit:2;stroke-dasharray:none;stroke-opacity:0.996078;paint-order:stroke markers fill"
       id="ellipse24286"
       cy="303.32898"
       cx="293.91284"
       rx="4.6228747"
       ry="6.9624376"
       transform="matrix(0.71267124,-0.70149819,0.60082695,0.79937912,0,0)" /><ellipse
       style="fill:#ffffff;fill-opacity:0.85454541;stroke:#2b3e5b;stroke-width:0;stroke-linecap:round;stroke-linejoin:miter;stroke-miterlimit:2;stroke-dasharray:none;stroke-opacity:0.996078;paint-order:stroke markers fill"
       id="path23608-9"
       cy="514.6333"
       cx="80.902382"
       rx="10.039028"
       ry="14.99952"
       transform="matrix(0.7313147,-0.68204018,0.62148118,0.78342909,0,0)" /><ellipse
       style="fill:#ffffff;fill-opacity:0.85454541;stroke:#2b3e5b;stroke-width:0;stroke-linecap:round;stroke-linejoin:miter;stroke-miterlimit:2;stroke-dasharray:none;stroke-opacity:0.996078;paint-order:stroke markers fill"
       id="ellipse24286-3"
       cy="494.36978"
       cx="108.6889"
       rx="4.0832605"
       ry="6.248498"
       transform="matrix(0.67291524,-0.73971959,0.55834315,0.82961011,0,0)" /><g
       id="g37751"
       style="opacity:0.570048;stroke-width:1.53846"
       transform="matrix(0.65,0,0,0.65,410.7894,51.413217)"><rect
         style="fill:#c2c2c2;fill-opacity:1;stroke:none;stroke-width:15.0768;stroke-linecap:round;stroke-linejoin:round;stroke-dasharray:none;stroke-opacity:1;paint-order:markers stroke fill"
         id="rect28733"
         width="153.93669"
         height="148.57924"
         x="-339.72125"
         y="215.8439"
         rx="48.199017"
         ry="49.385059" /><g
         id="g28641"
         style="stroke-width:2.15374;filter:url(#filter29237-4)"
         transform="matrix(0.71432331,0,0,0.71432331,-774.92277,-32.74061)"><g
           id="g28635"
           style="stroke-width:2.15374"><g
             id="g28296"
             transform="matrix(0.8574201,0,0,0.8574201,1128.5617,196.48879)"
             style="stroke-width:2.5118"><path
               id="path25677"
               style="fill:#1b1b1b;stroke-width:2.5118"
               d="m -582,90.000001 c -3.3,0 -6,2.7 -6,6 V 114 h -6 c -3.3,0 -6,2.7 -6,6 v 25.4668 c -17.88966,2.91017 -32.51339,15.65506 -37.95117,32.5332 H -666 c -3.3,0 -6,2.7 -6,6 v 6 h -18 c -3.3,0 -6,2.7 -6,6 v 12 c 0,3.3 2.7,6 6,6 h 18 v 6 c 0,3.3 2.7,6 6,6 h 25.9082 l 0.22657,48 H -666 c -3.3,0 -6,2.7 -6,6 v 6 h -18 c -3.3,0 -6,2.7 -6,6 v 12 c 0,3.3 2.7,6 6,6 h 18 v 6 c 0,3.3 2.7,6 6,6 h 26.36328 l 0.22852,48 H -666 c -3.3,0 -6,2.7 -6,6 v 6 h -18 c -3.3,0 -6,2.7 -6,6 v 12 c 0,3.3 2.7,6 6,6 h 18 v 6 c 0,3.3 2.7,6 6,6 h 29.05273 c 5.33383,16.63929 19.47063,29.28438 36.94727,32.42188 V 476 c 0,3.3 2.7,6 6,6 h 6 v 18 c 0,3.3 2.7,6 6,6 h 12 c 3.3,0 6,-2.7 6,-6 v -18 h 6 c 3.3,0 6,-2.7 6,-6 v -24.78516 h 48 V 476 c 0,3.3 2.7,6 6,6 h 6 v 18 c 0,3.3 2.7,6 6,6 h 12 c 3.3,0 6,-2.7 6,-6 v -18 h 6 c 3.3,0 6,-2.7 6,-6 v -24.78516 h 48 V 476 c 0,3.3 2.7,6 6,6 h 6 v 18 c 0,3.3 2.7,6 6,6 h 12 c 3.3,0 6,-2.7 6,-6 v -18 h 6 c 3.3,0 6,-2.7 6,-6 v -25.57812 c 17.47664,-3.1375 31.61344,-15.78259 36.94727,-32.42188 H -294 c 3.3,0 6,-2.7 6,-6 v -6 h 18 c 3.3,0 6,-2.7 6,-6 v -12 c 0,-3.3 -2.7,-6 -6,-6 h -18 v -6 c 0,-3.3 -2.7,-6 -6,-6 h -26.5918 l 0.22852,-48 H -294 c 3.3,0 6,-2.7 6,-6 v -6 h 18 c 3.3,0 6,-2.7 6,-6 v -12 c 0,-3.3 -2.7,-6 -6,-6 h -18 v -6 c 0,-3.3 -2.7,-6 -6,-6 h -26.13477 l 0.22657,-48 H -294 c 3.3,0 6,-2.7 6,-6 v -6 h 18 c 3.3,0 6,-2.7 6,-6 v -12 c 0,-3.3 -2.7,-6 -6,-6 h -18 v -6 c 0,-3.3 -2.7,-6 -6,-6 h -28.04883 C -327.48661,161.12186 -342.11034,148.37697 -360,145.4668 V 120 c 0,-3.3 -2.7,-6 -6,-6 h -6 V 96.000001 c 0,-3.3 -2.7,-6 -6,-6 h -12 c -3.3,0 -6,2.7 -6,6 V 114 h -6 c -3.3,0 -6,2.7 -6,6 v 24.78516 h -48 V 120 c 0,-3.3 -2.7,-6 -6,-6 h -6 V 96.000001 c 0,-3.3 -2.7,-6 -6,-6 h -12 c -3.3,0 -6,2.7 -6,6 V 114 h -6 c -3.3,0 -6,2.7 -6,6 v 24.78516 h -48 V 120 c 0,-3.3 -2.7,-6 -6,-6 h -6 V 96.000001 c 0,-3.3 -2.7,-6 -6,-6 z m -4.25,102.785159 h 212.5 c 3.3,0 6.01169,2.70002 6,6 l -0.70117,197.77343 c -0.0116,3.27939 -2.68153,6.95508 -5.96094,6.95508 h -211.17578 c -3.27941,0 -5.94933,-3.67569 -5.96094,-6.95508 L -592.25,198.78516 c -0.0117,-3.29998 2.7,-6 6,-6 z" /><path
               style="fill:#3c3c3c;stroke:#000000;stroke-width:0;stroke-linecap:round;stroke-linejoin:miter;stroke-miterlimit:29.4;stroke-dasharray:none;stroke-opacity:1;paint-order:fill markers stroke"
               d="m -580.39651,392.19324 c -0.21828,-0.35319 -0.51528,-42.98681 -0.66001,-94.74139 l -0.26312,-94.09922 101.28866,0.13922 101.28866,0.13921 -0.2113,93.91369 c -0.13672,60.74526 -0.40367,94.15686 -0.75597,94.60223 -0.76738,0.97003 -200.08759,1.01607 -200.68692,0.0464 z"
               id="path27897" /></g></g></g></g><path
       id="path33547"
       style="fill:#ffffff;fill-opacity:0.2;stroke:#586889;stroke-width:0;stroke-linecap:round;stroke-linejoin:miter;stroke-miterlimit:0;stroke-dasharray:none;stroke-opacity:0.48177087;paint-order:markers stroke fill"
       class="UnoptimicedTransforms"
       d="m 119.54312,15.139319 c -3.36989,96.524181 34.07047,190.229071 103.73908,259.635851 54.35724,53.39914 124.77858,88.94185 201.27265,101.58534 V 53.030286 c 0,-17.783544 -13.70224,-37.890967 -38.99882,-37.890967 z"
       transform="matrix(1.0430503,0,0,1.0363824,-10.33208,-8.4891295)"
       sodipodi:nodetypes="cccssc" /><rect
       style="fill:#586889;fill-opacity:0.65974027;stroke:#2b3e5b;stroke-width:0;stroke-linecap:square;stroke-linejoin:miter;stroke-miterlimit:1;stroke-dasharray:none;stroke-opacity:0;paint-order:markers stroke fill"
       id="rect24398-6"
       width="15.781677"
       height="8.0138626"
       x="245.77771"
       y="81.272102"
       rx="3.3145823"
       ry="4.0069313" /><path
       id="rect24398"
       style="fill:#586889;fill-opacity:0.65974027;stroke:#2b3e5b;stroke-width:0;stroke-linecap:square;stroke-linejoin:miter;stroke-miterlimit:1;stroke-dasharray:none;stroke-opacity:0;paint-order:markers stroke fill"
       d="m 55.412166,81.250005 v 8.01367 H 233.95709 c 1.83628,0 3.31446,-1.78602 3.31446,-4.00586 0,-2.21984 -1.47818,-4.00781 -3.31446,-4.00781 z"
       sodipodi:nodetypes="ccsssc" /></g></svg>
